<svg width="16" height="16" viewBox="0 0 16 16" fill="none" xmlns="http://www.w3.org/2000/svg">
<path d="M9.0006 2.33641C9.00075 1.86004 9.48226 1.54538 9.89415 1.78465C11.7509 2.86403 14.3336 5.21304 14.3336 8.74071C14.3336 12.6171 11.6392 14.1169 9.55529 14.5347C8.61213 14.7237 8.90861 14.6204 8.61193 14.6577C8.49973 14.6642 8.39122 14.6665 8.28869 14.6665C6.52565 14.6664 3.0006 13.4812 3.0006 8.74071C3.00064 6.88646 3.97458 5.64139 4.90685 4.93016C5.42582 4.53426 6.08741 4.92828 6.15392 5.57762L6.21056 6.13622C6.28036 6.81632 6.89999 7.37401 7.47326 7.00145C8.59618 6.27163 9.0006 4.51638 9.0006 3.55516V2.33641Z" fill="url(#paint0_linear_248_3855)"/>
<path d="M2.62365 0.488756C2.75527 0.368879 2.94602 0.491255 2.92833 0.668444C2.76242 2.32444 3.91734 1.66003 3.91759 3.07665C3.91759 4.44884 3.00165 5.19757 2.23302 5.41649C2.10182 5.45369 1.98973 5.33442 2.01134 5.19969C2.21163 3.95084 1.86715 3.83593 1.65294 3.06005C1.35511 1.98125 2.03521 1.02539 2.62365 0.488756Z" fill="url(#paint1_linear_248_3855)"/>
<defs>
<linearGradient id="paint0_linear_248_3855" x1="14.3336" y1="7.55371" x2="1.58057" y2="7.55371" gradientUnits="userSpaceOnUse">
<stop offset="0.4" stop-color="#10BEBE"/>
<stop offset="1" stop-color="#72ED98"/>
</linearGradient>
<linearGradient id="paint1_linear_248_3855" x1="14.3336" y1="7.55371" x2="1.58057" y2="7.55371" gradientUnits="userSpaceOnUse">
<stop offset="0.4" stop-color="#10BEBE"/>
<stop offset="1" stop-color="#72ED98"/>
</linearGradient>
</defs>
</svg>
