<svg width="24" height="24" viewBox="0 0 24 24" fill="none" xmlns="http://www.w3.org/2000/svg">
<path d="M8 10C8 7.79086 9.79083 6 11.9999 6C14.209 6 16 7.79086 16 10C16 10.8097 15.7594 11.5631 15.3459 12.1929C14.71 13.1612 14.3917 13.6451 14.3505 13.7174C13.9833 14.3607 14.0513 14.1338 14.0051 14.873C13.9999 14.9561 13.9999 15.0819 13.9999 15.3333C13.9999 15.7015 13.7014 16 13.3332 16L10.6666 16C10.2984 16 9.99996 15.7015 9.99996 15.3333C9.99996 15.0819 9.99995 14.9561 9.99476 14.873C9.94855 14.1338 10.0162 14.3607 9.64898 13.7174C9.60771 13.6451 9.29003 13.1612 8.6541 12.1929C8.24056 11.5631 8 10.8097 8 10Z" fill="#FD7A2A"/>
<path d="M9.99997 18H13.9999M11.9999 6C9.79083 6 8 7.79086 8 10C8 10.8097 8.24056 11.5631 8.6541 12.1929C9.29003 13.1612 9.60771 13.6451 9.64898 13.7174C10.0162 14.3607 9.94855 14.1338 9.99476 14.873C9.99995 14.9561 9.99997 15.0819 9.99997 15.3333C9.99997 15.7015 10.2984 16 10.6666 16L13.3332 16C13.7014 16 13.9999 15.7015 13.9999 15.3333C13.9999 15.0819 13.9999 14.9561 14.0051 14.873C14.0513 14.1338 13.9833 14.3607 14.3505 13.7174C14.3917 13.6451 14.71 13.1612 15.3459 12.1929C15.7594 11.5631 16 10.8097 16 10C16 7.79086 14.209 6 11.9999 6Z" stroke="#FD7A2A" stroke-width="1.5" stroke-linecap="round" stroke-linejoin="round"/>
</svg>
