<svg width="24" height="24" viewBox="0 0 24 24" fill="none" xmlns="http://www.w3.org/2000/svg">
<path d="M12.75 6C13.3019 6.00026 13.7489 6.44803 13.749 7V12.8613C14.7263 13.2569 15.416 14.214 15.416 15.333C15.416 16.8055 14.2225 17.9997 12.75 18C11.2774 17.9999 10.083 16.8056 10.083 15.333C10.0831 14.2141 10.7729 13.2569 11.75 12.8613V7C11.7501 6.44796 12.198 6.00014 12.75 6ZM10.1602 10.7539C10.5382 10.7924 10.833 11.1118 10.833 11.5C10.8329 11.8881 10.5382 12.2076 10.1602 12.2461L10.083 12.25H8.75C8.33587 12.25 8.00013 11.9141 8 11.5C8 11.0858 8.33579 10.75 8.75 10.75H10.083L10.1602 10.7539ZM10.1602 7.75391C10.5382 7.79242 10.833 8.11175 10.833 8.5C10.8329 8.8882 10.5382 9.20759 10.1602 9.24609L10.083 9.25H8.75C8.33583 9.25 8.00007 8.91416 8 8.5C8 8.08579 8.33579 7.75 8.75 7.75H10.083L10.1602 7.75391Z" fill="#FD7A2A"/>
</svg>
