<svg width="24" height="24" viewBox="0 0 24 24" fill="none" xmlns="http://www.w3.org/2000/svg">
<path d="M9.99997 18H13.9999M11.9999 6C9.79083 6 8 7.79086 8 10C8 10.8097 8.24056 11.5631 8.6541 12.1929C9.29003 13.1612 9.60771 13.6451 9.64898 13.7174C10.0162 14.3607 9.94855 14.1338 9.99476 14.873C9.99995 14.9561 9.99997 15.0819 9.99997 15.3333C9.99997 15.7015 10.2984 16 10.6666 16L13.3332 16C13.7014 16 13.9999 15.7015 13.9999 15.3333C13.9999 15.0819 13.9999 14.9561 14.0051 14.873C14.0513 14.1338 13.9833 14.3607 14.3505 13.7174C14.3917 13.6451 14.71 13.1612 15.3459 12.1929C15.7594 11.5631 16 10.8097 16 10C16 7.79086 14.209 6 11.9999 6Z" stroke="url(#paint0_linear_312_2590)" stroke-width="1.5" stroke-linecap="round" stroke-linejoin="round"/>
<defs>
<linearGradient id="paint0_linear_312_2590" x1="16" y1="12" x2="8" y2="12" gradientUnits="userSpaceOnUse">
<stop offset="0.4" stop-color="#10BEBE"/>
<stop offset="1" stop-color="#72ED98"/>
</linearGradient>
</defs>
</svg>
