<svg width="24" height="24" viewBox="0 0 24 24" fill="none" xmlns="http://www.w3.org/2000/svg">
<path d="M12.749 6C13.3012 6 13.7489 6.44786 13.749 7V12.8604C14.7264 13.256 15.416 14.2148 15.416 15.334L15.4023 15.6064C15.2655 16.9506 14.1302 17.9998 12.75 18L12.4766 17.9863C11.2221 17.8587 10.2244 16.8609 10.0967 15.6064L10.083 15.334C10.083 14.2155 10.7725 13.2584 11.749 12.8623V7C11.7492 6.44808 12.1972 6.00037 12.749 6ZM12.75 14.167C12.1059 14.1671 11.583 14.6898 11.583 15.334C11.5835 15.9778 12.1061 16.4999 12.75 16.5C13.3938 16.4997 13.9156 15.9777 13.916 15.334C13.916 14.6899 13.394 14.1673 12.75 14.167ZM10.1602 10.7539C10.5382 10.7924 10.833 11.1118 10.833 11.5C10.8329 11.8881 10.5382 12.2076 10.1602 12.2461L10.083 12.25H8.75C8.33587 12.25 8.00013 11.9141 8 11.5C8 11.0858 8.33579 10.75 8.75 10.75H10.083L10.1602 10.7539ZM10.1602 7.75391C10.5382 7.79242 10.833 8.11175 10.833 8.5C10.8329 8.8882 10.5382 9.20759 10.1602 9.24609L10.083 9.25H8.75C8.33583 9.25 8.00007 8.91416 8 8.5C8 8.08579 8.33579 7.75 8.75 7.75H10.083L10.1602 7.75391Z" fill="url(#paint0_linear_312_2595)"/>
<defs>
<linearGradient id="paint0_linear_312_2595" x1="15.416" y1="12" x2="8" y2="12" gradientUnits="userSpaceOnUse">
<stop offset="0.4" stop-color="#10BEBE"/>
<stop offset="1" stop-color="#72ED98"/>
</linearGradient>
</defs>
</svg>
