<svg width="24" height="24" viewBox="0 0 24 24" fill="none" xmlns="http://www.w3.org/2000/svg">
<path d="M20.25 6.19727C20.25 5.62594 20.2497 5.24178 20.2256 4.94629C20.208 4.73155 20.1797 4.60083 20.1475 4.51075L20.1143 4.43262C20.0096 4.22712 19.8495 4.05482 19.6533 3.93457L19.5674 3.88672C19.4768 3.84057 19.3396 3.79787 19.0527 3.77442C18.9049 3.76233 18.7348 3.7561 18.5303 3.75293L17.7998 3.75H6.2002C5.62778 3.75 5.24327 3.75024 4.94727 3.77442C4.73205 3.79201 4.601 3.82024 4.51075 3.85254L4.43262 3.88672C4.22672 3.99164 4.05464 4.15078 3.93457 4.34668L3.88672 4.43262C3.84062 4.52312 3.79788 4.66015 3.77442 4.94727C3.75024 5.24327 3.75 5.62778 3.75 6.2002V15.9717L7.19825 11.9492L7.21485 11.9316C7.4119 11.7017 7.59004 11.4928 7.75196 11.334C7.92263 11.1666 8.13028 10.9966 8.4043 10.8994L8.55079 10.8545C8.89574 10.7652 9.26071 10.7838 9.59668 10.9082L9.69629 10.9492C9.92067 11.0523 10.0966 11.2028 10.2441 11.3516C10.4079 11.5166 10.5882 11.7338 10.7881 11.9736L13.459 15.1797L13.708 15.4756C13.776 15.5546 13.8315 15.616 13.8809 15.666C13.9732 15.7595 13.9952 15.7599 13.9756 15.752L14.0537 15.7686C14.0812 15.7698 14.1095 15.7661 14.1377 15.7578L14.1436 15.7539C14.1592 15.7445 14.1901 15.7228 14.2412 15.6797C14.3492 15.5885 14.4843 15.4541 14.708 15.2305L15.2051 14.7334C15.4145 14.5239 15.605 14.3331 15.7754 14.1895C15.9518 14.0408 16.1629 13.893 16.4316 13.8154L16.5762 13.7803C16.9147 13.7132 17.2659 13.7482 17.585 13.8799L17.7666 13.9707C17.9374 14.0711 18.0759 14.1977 18.1953 14.3232C18.3489 14.4848 18.517 14.6953 18.7022 14.9268L20.25 16.8613V6.19727ZM8.94825 12.3027L8.90625 12.3135C8.92888 12.3054 8.90497 12.304 8.80176 12.4053C8.7475 12.4585 8.68692 12.5241 8.61231 12.6084L8.33887 12.9238L8.33692 12.9248L8.33789 12.9258L3.75196 18.2744C3.7539 18.6304 3.75929 18.8919 3.7793 19.1025C3.80334 19.3554 3.8435 19.4825 3.88672 19.5674L3.93457 19.6533C4.05498 19.8497 4.22753 20.0098 4.43262 20.1143L4.51075 20.1475C4.60083 20.1797 4.73155 20.208 4.94629 20.2256C5.24178 20.2497 5.62594 20.25 6.19727 20.25H17.8037C18.375 20.25 18.7585 20.2497 19.0537 20.2256C19.3399 20.2022 19.477 20.1603 19.5674 20.1143L19.6533 20.0654C19.8488 19.9454 20.0092 19.7734 20.1143 19.5674L20.1523 19.4766C20.1743 19.412 20.1915 19.3273 20.207 19.209L17.5313 15.8643C17.3301 15.6128 17.2075 15.4616 17.1084 15.3574C17.0612 15.3078 17.0323 15.2827 17.0176 15.2715L17.0127 15.2666C16.9858 15.2555 16.9577 15.2486 16.9297 15.2471L16.8477 15.2568C16.8688 15.2507 16.8464 15.2481 16.7422 15.3359C16.632 15.4288 16.4944 15.5662 16.2666 15.7939L15.7695 16.291C15.5639 16.4966 15.3767 16.6846 15.209 16.8262C15.0786 16.9362 14.9291 17.0462 14.751 17.127L14.5625 17.1963C14.2362 17.2926 13.8879 17.2932 13.5606 17.1943L13.4219 17.1465C13.1659 17.0449 12.9727 16.8809 12.8135 16.7197C12.7367 16.6419 12.6566 16.552 12.5723 16.4541L12.3066 16.1397L9.63575 12.9346C9.41902 12.6745 9.28685 12.5163 9.17969 12.4082C9.12866 12.3568 9.09694 12.3309 9.08106 12.3193L9.07618 12.3145C9.03488 12.2992 8.99076 12.2957 8.94825 12.3027ZM21.75 17.8027C21.75 18.2115 21.7474 18.5673 21.7354 18.8721C21.7559 18.9912 21.7504 19.1128 21.7139 19.2275C21.6858 19.5349 21.6336 19.8265 21.5176 20.1035L21.4502 20.2481C21.2196 20.7005 20.8687 21.0802 20.4375 21.3447L20.2481 21.4502C19.9111 21.6218 19.5551 21.6897 19.1758 21.7207C18.8053 21.751 18.3502 21.75 17.8037 21.75H6.19727C5.65068 21.75 5.19497 21.751 4.82422 21.7207C4.49227 21.6936 4.17809 21.638 3.87891 21.5098L3.75098 21.4502C3.29772 21.2192 2.91904 20.8678 2.65528 20.4375L2.54981 20.2481C2.38848 19.9314 2.31974 19.5983 2.28614 19.2451C2.26975 19.0728 2.26069 18.883 2.25586 18.6758L2.25 18.001V6.2002C2.25 5.65252 2.24898 5.19642 2.2793 4.8252C2.31034 4.44531 2.37796 4.08826 2.54981 3.75098L2.65625 3.56153C2.92037 3.1311 3.29851 2.78042 3.75098 2.54981L3.87891 2.49024C4.17831 2.36188 4.49284 2.30645 4.8252 2.2793C5.19642 2.24898 5.65252 2.25 6.2002 2.25H17.7998L18.5537 2.25391C18.7825 2.25756 18.9893 2.26414 19.1748 2.2793C19.5546 2.31034 19.9109 2.37807 20.2481 2.54981L20.4375 2.65528C20.8681 2.91922 21.2193 3.2979 21.4502 3.75098L21.5098 3.87891C21.638 4.17809 21.6936 4.49227 21.7207 4.82422C21.751 5.19497 21.75 5.65068 21.75 6.19727V17.8027Z" fill="#474846"/>
<path d="M13 8C13 6.89543 13.8954 6 15 6C16.1046 6 17 6.89543 17 8C17 9.10457 16.1046 10 15 10C13.8954 10 13 9.10457 13 8Z" fill="#474846"/>
</svg>
