<svg width="24" height="24" viewBox="0 0 24 24" fill="none" xmlns="http://www.w3.org/2000/svg">
<path fill-rule="evenodd" clip-rule="evenodd" d="M1.7207 9.74995C1.7207 4.77691 5.79455 0.75 10.8142 0.75C15.3222 0.75 19.0669 3.99735 19.784 8.26152C19.832 8.54743 19.9247 8.82524 20.0764 9.07235L21.8574 11.9747C22.3915 12.8452 22.07 14.0049 21.0924 14.3866C21.0214 14.4143 20.9488 14.4422 20.8747 14.4702C20.0863 14.7677 19.5025 15.4732 19.4425 16.3137L19.3605 17.4615C19.2897 18.4525 18.4091 19.1859 17.4217 19.0762C16.5299 18.9771 15.75 19.6752 15.75 20.5724V21.4456C15.75 22.1816 15.2773 22.8522 14.5161 22.9816C13.7378 23.1138 12.5095 23.2499 10.75 23.2499C8.99045 23.2499 7.76215 23.1138 6.98385 22.9816C6.22265 22.8522 5.75 22.1816 5.75 21.4456V18.2982C5.75 17.6286 5.40441 17.0151 4.8941 16.5816C2.95211 14.9316 1.7207 12.4835 1.7207 9.74995ZM4.5149 11.8329C3.54371 8.9375 4.70738 5.6638 7.4549 4.07751C10.2001 2.49257 13.6135 3.11924 15.636 5.4032C16.4214 6.29005 16.1545 7.5349 15.3733 8.2037C14.5265 8.92875 13.146 10.0307 11.5774 10.9637C9.9567 11.9278 8.17475 12.6209 7.06095 13.0076C6.09295 13.3437 4.88963 12.9501 4.5149 11.8329Z" fill="url(#paint0_linear_204_1284)"/>
<defs>
<linearGradient id="paint0_linear_204_1284" x1="22.1139" y1="12" x2="1.7207" y2="12" gradientUnits="userSpaceOnUse">
<stop offset="0.4" stop-color="#10BEBE"/>
<stop offset="1" stop-color="#72ED98"/>
</linearGradient>
</defs>
</svg>
