<svg width="149" height="29" viewBox="0 0 149 29" fill="none" xmlns="http://www.w3.org/2000/svg">
<path d="M134.648 8.27158C135.991 7.23983 137.503 7.24002 138.703 8.3917C139.711 9.3757 140.503 11.0563 140.575 12.1603C140.623 12.8561 140.864 13.4559 141.608 12.4962C141.704 12.3522 142.472 11.344 142.64 10.336C143.024 8.03203 145.016 7.64788 146.648 8.17588C149.695 9.18389 149.168 12.5443 147.344 14.0323C146.336 14.8483 145.351 16.2404 145.039 17.1524C144.775 17.9682 144.319 18.8076 143.48 19.3595C141.92 20.3914 141.272 22.2398 141.224 24.1837C141.104 27.7595 138.752 28.6955 136.76 28.1437C134.552 27.5677 133.351 25.3596 135.295 22.9356C136.735 21.1357 136.016 20.4881 137.071 18.6163C137.431 18.0163 137.503 17.584 137.239 16.9601C136.903 16.0961 135.92 14.4643 134.72 13.2403C133.064 11.5363 133.136 9.42358 134.648 8.27158ZM114.755 1.47959C116.795 1.45559 117.923 2.99244 117.947 5.15244C117.731 10.1441 117.707 12.0163 118.427 14.5362C118.955 16.3361 119.003 18.1838 118.571 19.5997C117.827 22.0955 115.787 23.008 114.108 22.0724C113.244 21.5684 112.307 21.3522 110.795 22.1202C106.835 24.1119 104.507 19.5276 104.507 15.9757C104.507 11.0321 106.931 8.65621 110.219 9.25596C111.395 9.49592 112.091 9.28002 111.947 8.32041C111.755 7.00043 111.611 6.66398 111.539 4.96006C111.419 2.63214 112.643 1.50367 114.755 1.47959ZM129.896 1.47959C131.936 1.45559 133.064 2.99244 133.088 5.15244C132.872 10.1441 132.848 12.0163 133.567 14.5362C134.095 16.3361 134.144 18.1838 133.712 19.5997C132.968 22.0955 130.928 23.008 129.248 22.0724C128.384 21.5684 127.448 21.3522 125.936 22.1202C121.976 24.1119 119.648 19.5276 119.648 15.9757C119.648 11.0321 122.072 8.65621 125.359 9.25596C126.535 9.49592 127.232 9.28002 127.088 8.32041C126.896 7.00043 126.752 6.66398 126.68 4.96006C126.56 2.63214 127.784 1.50367 129.896 1.47959ZM46.4396 7.64756C48.5755 7.64756 49.7274 8.99191 49.3194 11.1759C48.9354 13.2639 49.1761 15.2564 49.5841 16.8644C50.064 18.6402 50.0634 20.248 49.1515 21.256C47.8555 22.6718 45.4797 22.312 44.5196 21.2081C43.8237 20.3922 43.5353 20.5597 43.0314 21.2315C42.4554 22.0235 40.7277 22.5764 38.7599 22.3604C36.384 22.0725 34.7757 20.0801 35.5675 17.3683C36.0235 15.8083 35.8076 13.9837 35.2316 12.0157C34.4157 9.25586 36.1917 7.64756 38.3517 7.64756C40.0076 7.64758 41.3517 8.48806 41.1837 10.336C40.9437 12.76 40.3918 14.3442 40.5118 15.3282C40.6319 16.288 41.4239 16.672 41.9278 16.672C43.1997 16.6717 43.7518 14.7997 43.5118 10.672C43.3918 8.87199 44.5916 7.64758 46.4396 7.64756ZM100.252 7.64756C102.388 7.64756 103.54 8.99191 103.132 11.1759C102.748 13.2639 102.989 15.2564 103.397 16.8644C103.876 18.6402 103.876 20.248 102.964 21.256C101.668 22.6718 99.2922 22.312 98.3321 21.2081C97.6362 20.3922 97.3478 20.5597 96.8439 21.2315C96.2679 22.0235 94.5402 22.5764 92.5724 22.3604C90.1965 22.0725 88.5882 20.0801 89.38 17.3683C89.836 15.8083 89.6201 13.9837 89.0441 12.0157C88.2282 9.25586 90.0042 7.64756 92.1642 7.64756C93.8201 7.64758 95.1642 8.48806 94.9962 10.336C94.7562 12.76 94.2043 14.3442 94.3243 15.3282C94.4445 16.288 95.2364 16.672 95.7403 16.672C97.0122 16.6717 97.5643 14.7997 97.3243 10.672C97.2043 8.87199 98.4041 7.64758 100.252 7.64756ZM22.6358 7.86435C25.2996 7.88841 26.1396 9.73569 25.8038 11.7755C25.3718 14.3915 25.5155 15.5683 25.8995 18.4483C26.0914 20.1043 25.5632 22.3835 23.1153 22.3595C20.6915 22.3354 18.6758 21.2314 19.3478 18.0636C19.8997 15.5438 20.2119 14.0078 19.588 12.088C18.964 10.144 19.9478 7.81635 22.6358 7.86435ZM30.7218 7.86435C33.3855 7.88841 34.2256 9.73569 33.8898 11.7755C33.4578 14.3915 33.6015 15.5683 33.9855 18.4483C34.1773 20.1043 33.6491 22.3835 31.2013 22.3595C28.7775 22.3354 26.7617 21.2314 27.4337 18.0636C27.9856 15.5438 28.2979 14.0078 27.6739 12.088C27.0499 10.144 28.0338 7.81635 30.7218 7.86435ZM51.7745 8.53623C53.0945 6.59225 56.0471 7.16777 56.7911 9.01572C57.055 9.66349 57.3185 9.66387 57.7023 9.32822C58.3263 8.77622 59.9829 7.76764 61.7589 7.93564C66.0308 8.29569 65.8149 10.984 65.3829 14.296C65.2149 15.568 66.0789 16.9603 66.0069 18.4483C65.8869 21.304 64.8065 22.2882 62.6466 22.2882C60.9908 22.2881 59.8154 21.3761 60.0792 19.5284C60.7752 14.9924 59.9105 13.9356 58.5665 13.9356C57.2947 13.9358 56.4789 15.4001 56.7189 19.2638C56.8148 21.0876 55.6389 22.3359 53.7911 22.336C51.6551 22.336 50.3345 20.9199 50.9825 18.7599C51.5345 16.9599 51.7509 15.1116 51.3429 13.4796C50.863 11.6798 50.9827 9.66422 51.7745 8.53623ZM71.6212 6.04013C70.9012 3.37621 72.5812 0.855915 75.629 1.59971C77.669 2.1037 79.0134 2.00797 80.5733 1.67197C83.5493 1.02405 86.5255 3.06414 86.5255 6.2081C86.5255 8.70399 85.4452 9.83189 83.4532 10.3839C82.9252 10.5279 82.9976 11.1516 83.6456 11.1036C86.1655 10.9119 88.9253 13.1922 88.1095 17.3438C87.3415 21.2318 85.8531 21.7363 82.5411 22.2403C81.4371 22.4083 79.9251 22.2879 78.4132 22.0479C77.0692 21.832 75.8687 21.8564 74.7648 22.0724C72.1491 22.576 70.2779 20.632 71.1417 17.4884C72.1977 13.6004 72.4132 9.01614 71.6212 6.04013ZM0.702256 5.75205C-0.281744 2.34405 2.59886 0.784267 5.71886 1.57627C7.56673 2.05614 9.99057 1.96006 13.2062 1.62412C16.5661 1.28812 18.5107 2.41594 18.3907 5.00791C18.2707 7.43191 16.8065 8.43971 13.7345 7.59971C11.6466 7.02394 11.5028 12.0643 12.6788 15.7843C14.0946 20.2239 12.7265 21.9756 9.84679 21.9757C7.13479 21.9757 5.86241 20.2719 5.86241 17.9679C5.86242 15.8079 6.34297 11.3201 6.63097 8.41611C6.72697 7.28811 6.15033 7.19215 5.57433 7.45615C3.00648 8.65597 1.30224 7.81597 0.702256 5.75205ZM113.1 15.088C112.812 13.1201 110.316 13.312 109.98 14.8478C109.668 16.3118 110.243 17.128 111.491 17.128C112.475 17.128 113.34 16.6959 113.1 15.088ZM128.24 15.088C127.952 13.1201 125.456 13.312 125.12 14.8478C124.808 16.3118 125.384 17.128 126.632 17.128C127.616 17.128 128.48 16.6959 128.24 15.088ZM79.0128 13.0958C77.7893 13.0959 77.3813 13.576 77.2853 14.3917C76.9253 16.6957 77.7656 17.2955 80.1896 16.9835C81.917 16.7435 82.5409 16.1201 82.5411 15.1124C82.5411 13.7204 80.8848 13.0958 79.0128 13.0958ZM78.8214 6.1124C77.8374 5.8484 77.6215 6.20813 77.5255 6.83213C77.4535 7.28808 77.5009 7.72035 77.5489 8.03232C77.6451 8.65605 78.3655 8.77591 79.1573 8.46396C80.8612 7.79198 80.5012 6.37649 78.8214 6.1124ZM20.5235 0.759861C22.4675 -0.272138 24.724 0.688001 25.42 1.504C26.5478 2.84799 26.5475 5.24752 24.7237 6.39951C23.4997 7.16751 21.2674 6.8562 19.7794 5.7042C18.3635 4.60018 18.7237 1.69591 20.5235 0.759861ZM28.6095 0.759861C30.5535 -0.272138 32.81 0.688001 33.506 1.504C34.6338 2.84799 34.6334 5.24752 32.8097 6.39951C31.5857 7.16751 29.3533 6.8562 27.8653 5.7042C26.4495 4.60018 26.8096 1.69591 28.6095 0.759861Z" fill="url(#paint0_linear_181_508)"/>
<defs>
<linearGradient id="paint0_linear_181_508" x1="148.823" y1="14.3007" x2="0.506104" y2="14.3007" gradientUnits="userSpaceOnUse">
<stop offset="0.4" stop-color="#10BEBE"/>
<stop offset="1" stop-color="#72ED98"/>
</linearGradient>
</defs>
</svg>
