<svg width="25" height="24" viewBox="0 0 25 24" fill="none" xmlns="http://www.w3.org/2000/svg">
<path d="M12.4142 13.9997C16.7952 13.9563 20.3333 10.3914 20.3333 6.00012C20.3333 5.61224 20.3056 5.2308 20.2523 4.85767C15.8713 4.9011 12.3333 8.466 12.3333 12.8573C12.3333 13.2451 12.3609 13.6266 12.4142 13.9997Z" fill="#B7BAB6"/>
<path d="M12.2523 13.9997C7.8713 13.9563 4.33325 10.3914 4.33325 6.00012C4.33325 5.61224 4.36086 5.2308 4.41421 4.85767C8.7952 4.9011 12.3333 8.466 12.3333 12.8573C12.3333 13.2451 12.3056 13.6266 12.2523 13.9997Z" fill="#B7BAB6"/>
<path d="M12.3333 13V21M12.3333 12.8573C12.3333 8.466 15.8713 4.9011 20.2523 4.85767C20.3056 5.2308 20.3333 5.61224 20.3333 6.00012C20.3333 10.3914 16.7952 13.9563 12.4142 13.9997C12.3609 13.6266 12.3333 13.2451 12.3333 12.8573ZM12.3333 12.8573C12.3333 8.466 8.7952 4.9011 4.41421 4.85767C4.36086 5.2308 4.33325 5.61224 4.33325 6.00012C4.33325 10.3914 7.8713 13.9563 12.2523 13.9997C12.3056 13.6266 12.3333 13.2451 12.3333 12.8573Z" stroke="#B7BAB6" stroke-width="1.5" stroke-linecap="round" stroke-linejoin="round"/>
</svg>
