<svg width="24" height="24" viewBox="0 0 24 24" fill="none" xmlns="http://www.w3.org/2000/svg">
<path d="M10.5567 12.9974C11.7143 13.3684 12.2857 13.3684 13.4434 12.9973C14.6011 12.6263 16 11.8747 16 13.7692C16 14.8913 15.5785 15.9673 14.8284 16.7607C14.0783 17.5542 13.0609 17.9998 12 17.9998C10.9392 17.9998 9.92172 17.5544 9.17157 16.761C8.42143 15.9675 8 14.8913 8 13.7692C8 11.8747 9.39903 12.6264 10.5567 12.9974Z" fill="url(#paint0_linear_312_2580)"/>
<path d="M16 13.7692C16 9.96138 12 6.99976 12 6.99976C12 6.99976 8 9.96138 8 13.7692M16 13.7692C16 14.8913 15.5785 15.9673 14.8284 16.7607C14.0783 17.5542 13.0609 17.9998 12 17.9998C10.9392 17.9998 9.92172 17.5544 9.17157 16.761C8.42143 15.9675 8 14.8913 8 13.7692M16 13.7692C16 11.8747 14.6011 12.6263 13.4434 12.9973C12.2857 13.3684 11.7143 13.3684 10.5567 12.9974C9.39903 12.6264 8 11.8747 8 13.7692" stroke="url(#paint1_linear_312_2580)" stroke-width="1.5" stroke-linecap="round" stroke-linejoin="round"/>
<defs>
<linearGradient id="paint0_linear_312_2580" x1="16" y1="12.4998" x2="8" y2="12.4998" gradientUnits="userSpaceOnUse">
<stop offset="0.4" stop-color="#10BEBE"/>
<stop offset="1" stop-color="#72ED98"/>
</linearGradient>
<linearGradient id="paint1_linear_312_2580" x1="16" y1="12.4998" x2="8" y2="12.4998" gradientUnits="userSpaceOnUse">
<stop offset="0.4" stop-color="#10BEBE"/>
<stop offset="1" stop-color="#72ED98"/>
</linearGradient>
</defs>
</svg>
