<svg width="24" height="24" viewBox="0 0 24 24" fill="none" xmlns="http://www.w3.org/2000/svg">
<path d="M18 13H19M9 13H15M6 13H5M5 10H19M5 7H19M14 18.5L12 20.5L10 18.5M2 12.8002V7.2002C2 6.08009 2 5.51962 2.21799 5.0918C2.40973 4.71547 2.71547 4.40973 3.0918 4.21799C3.51962 4 4.08009 4 5.2002 4H18.8002C19.9203 4 20.4796 4 20.9074 4.21799C21.2837 4.40973 21.5905 4.71547 21.7822 5.0918C22 5.5192 22 6.07899 22 7.19691V12.8031C22 13.921 22 14.48 21.7822 14.9074C21.5905 15.2837 21.2837 15.5905 20.9074 15.7822C20.48 16 19.921 16 18.8031 16H5.19691C4.07899 16 3.5192 16 3.0918 15.7822C2.71547 15.5905 2.40973 15.2837 2.21799 14.9074C2 14.4796 2 13.9203 2 12.8002Z" stroke="#474846" stroke-width="1.5" stroke-linecap="round" stroke-linejoin="round"/>
</svg>
