<svg width="24" height="24" viewBox="0 0 24 24" fill="none" xmlns="http://www.w3.org/2000/svg">
<path d="M3 10.2002V15.8002C3 16.9203 3 17.4796 3.21799 17.9074C3.40973 18.2837 3.71547 18.5905 4.0918 18.7822C4.5192 19 5.07899 19 6.19691 19H17.8031C18.921 19 19.48 19 19.9074 18.7822C20.2837 18.5905 20.5905 18.2837 20.7822 17.9074C21 17.48 21 16.921 21 15.8031V10.1969C21 9.07899 21 8.5192 20.7822 8.0918C20.5905 7.71547 20.2837 7.40973 19.9074 7.21799C19.4796 7 18.9203 7 17.8002 7C16 7 15.7142 6.36917 15.5908 5.79093C15.5791 5.73636 15.556 5.66699 15.5098 5.52832C15.4584 5.37434 15.4326 5.29743 15.4043 5.22949C15.114 4.53389 14.4574 4.06083 13.7057 4.00541C13.6322 4 13.5509 4 13.3886 4H10.6113C10.449 4 10.3683 4 10.2949 4.00541C9.54322 4.06083 8.88586 4.53389 8.59558 5.22949C8.56723 5.29743 8.54156 5.37443 8.49023 5.52841L8.4883 5.53412L8.48827 5.53422C8.44335 5.66898 8.42066 5.73704 8.40918 5.79084C8.28578 6.36908 8 7 6.2002 7C5.08009 7 4.51962 7 4.0918 7.21799C3.71547 7.40973 3.40973 7.71547 3.21799 8.0918C3 8.51962 3 9.08009 3 10.2002Z" stroke="#1B1C1A" stroke-width="1.5" stroke-linecap="round" stroke-linejoin="round"/>
</svg>
