<svg width="24" height="24" viewBox="0 0 24 24" fill="none" xmlns="http://www.w3.org/2000/svg">
<path d="M19.0509 2.84515C19.32 2.78863 19.6377 2.74673 19.9562 2.8266L20.0919 2.86859L20.2677 2.94476C20.6659 3.14265 20.9769 3.4863 21.132 3.90863L21.174 4.04535C21.2534 4.36351 21.2119 4.68107 21.1554 4.94964C21.1223 5.10711 21.0755 5.28363 21.0197 5.47699L20.8292 6.10785L20.8283 6.1098L16.7374 19.4047C16.5586 19.9859 16.4104 20.4711 16.2638 20.8315C16.1446 21.1245 15.9779 21.47 15.6857 21.7094L15.5519 21.8051C15.1329 22.0668 14.6253 22.1377 14.1544 22.0063L13.9542 21.9379C13.5441 21.7677 13.2825 21.4022 13.0929 21.0942C12.9909 20.9285 12.8827 20.732 12.7667 20.5092L12.3898 19.7641L10.0402 15.0659L14.9767 10.1303C15.2694 9.83747 15.2694 9.36263 14.9767 9.06976C14.6838 8.77691 14.209 8.77699 13.9161 9.06976L8.99524 13.9897L4.23645 11.6108C3.69229 11.3387 3.23792 11.1126 2.90638 10.9086C2.63688 10.7428 2.32399 10.5213 2.13587 10.1938L2.0636 10.0463C1.84676 9.52353 1.89587 8.9283 2.19544 8.44867L2.29114 8.31585C2.53052 8.02344 2.87577 7.85708 3.16907 7.73773C3.52975 7.59097 4.01493 7.44216 4.5968 7.26312L17.8907 3.1723L18.5236 2.98089C18.7171 2.92502 18.8933 2.87826 19.0509 2.84515Z" fill="url(#paint0_linear_204_1244)"/>
<defs>
<linearGradient id="paint0_linear_204_1244" x1="21.2181" y1="12.4266" x2="1.92993" y2="12.4266" gradientUnits="userSpaceOnUse">
<stop offset="0.4" stop-color="#10BEBE"/>
<stop offset="1" stop-color="#72ED98"/>
</linearGradient>
</defs>
</svg>
