<svg width="28" height="28" viewBox="0 0 28 28" fill="none" xmlns="http://www.w3.org/2000/svg">
<rect width="28" height="28" rx="14" fill="#1B1C1A"/>
<path d="M12 8.5C12.5523 8.5 13 8.94772 13 9.5V18.5C13 19.0523 12.5523 19.5 12 19.5C11.4477 19.5 11 19.0523 11 18.5V9.5C11 8.94772 11.4477 8.5 12 8.5ZM16 10.5C16.5523 10.5 17 10.9477 17 11.5V16.5L16.9951 16.6025C16.9438 17.1067 16.5177 17.5 16 17.5C15.4823 17.5 15.0562 17.1067 15.0049 16.6025L15 16.5V11.5C15 10.9477 15.4477 10.5 16 10.5ZM8 11.5C8.55228 11.5 9 11.9477 9 12.5V15.5L8.99512 15.6025C8.94379 16.1067 8.51768 16.5 8 16.5C7.48232 16.5 7.05621 16.1067 7.00488 15.6025L7 15.5V12.5C7 11.9477 7.44772 11.5 8 11.5ZM20 11.5C20.5523 11.5 21 11.9477 21 12.5V15.5L20.9951 15.6025C20.9438 16.1067 20.5177 16.5 20 16.5C19.4823 16.5 19.0562 16.1067 19.0049 15.6025L19 15.5V12.5C19 11.9477 19.4477 11.5 20 11.5Z" fill="white"/>
</svg>
