<svg width="80" height="80" viewBox="0 0 80 80" fill="none" xmlns="http://www.w3.org/2000/svg">
<g clip-path="url(#clip0_204_1312)">
<rect width="80" height="80" rx="40" fill="#AFEFEF"/>
<path d="M37.0973 16.8399C14.2626 32.1923 6.72055 58.7784 3.29762 75.9772C2.56998 79.6333 5.41485 83 9.14268 83H70.9027C74.6152 83 77.393 79.6855 76.527 76.0754C73.1586 62.0339 63.5425 30.3903 42.9392 16.7751C41.1642 15.6021 38.8629 15.6528 37.0973 16.8399Z" fill="#52D8D8"/>
<ellipse cx="30.5" cy="50" rx="2.5" ry="3" fill="#333533"/>
<ellipse cx="49.5" cy="50" rx="2.5" ry="3" fill="#333533"/>
<path d="M31.5 43.0001C29 41.9999 25 43.5 24 46.0001" stroke="#333533" stroke-linecap="round"/>
<path d="M35.1825 58.0263C37.122 60.4912 42.0308 61.3077 44.4956 59.3681" stroke="#333533" stroke-linecap="round"/>
<path d="M48 43.0001C50.5 41.9999 54.5 43.5 55.5 46.0001" stroke="#333533" stroke-linecap="round"/>
</g>
<defs>
<clipPath id="clip0_204_1312">
<rect width="80" height="80" rx="40" fill="white"/>
</clipPath>
</defs>
</svg>
