<svg width="71" height="36" viewBox="0 0 71 36" fill="none" xmlns="http://www.w3.org/2000/svg">
<path d="M67.1211 0.0575731C69.3663 -0.0666343 71.0993 1.90481 70.5801 4.09273C68.41 13.2374 60.7904 26.7449 41.9932 29.288C44.1868 25.9733 49.1263 20.2312 53.5322 15.457C54.3505 14.5703 53.5721 13.6717 52.6895 14.4941C47.1018 19.7013 41.0173 26.8849 38.6055 33.0986C38.1106 34.3736 36.936 35.3113 35.5684 35.3115V35.3125C34.2006 35.3125 33.0252 34.3737 32.5303 33.0986C30.1185 26.885 24.0349 19.7013 18.4473 14.4941C17.5645 13.6714 16.7852 14.5702 17.6035 15.457C22.0095 20.2313 26.949 25.9732 29.1426 29.288C10.3455 26.7449 2.72677 13.2374 0.556648 4.09273C0.0374726 1.9049 1.76954 -0.0664659 4.01466 0.0575731C26.498 1.30135 34.4303 22.6039 35.5684 33.706L35.626 33.1777C36.9571 21.9425 44.9892 1.28196 67.1211 0.0575731Z" fill="#03ADAD"/>
</svg>
